<mxfile host="app.diagrams.net" modified="2021-07-01T09:44:46.716Z" agent="5.0 (Windows NT 10.0; WOW64) AppleWebKit/537.36 (KHTML, like Gecko) Chrome/91.0.4472.114 Safari/537.36" etag="YXCa8ZGTUiWvtDiaWU6H" version="14.7.0" type="github">
  <diagram id="R2lEEEUBdFMjLlhIrx00" name="Page-1">
    <mxGraphModel dx="1363" dy="752" grid="1" gridSize="10" guides="1" tooltips="1" connect="1" arrows="1" fold="1" page="1" pageScale="1" pageWidth="2336" pageHeight="1654" math="0" shadow="0" extFonts="Permanent Marker^https://fonts.googleapis.com/css?family=Permanent+Marker">
      <root>
        <mxCell id="0" />
        <mxCell id="1" parent="0" />
        <mxCell id="C-vyLk0tnHw3VtMMgP7b-23" value="app" style="shape=table;startSize=30;container=1;collapsible=1;childLayout=tableLayout;fixedRows=1;rowLines=0;fontStyle=1;align=center;resizeLast=1;" parent="1" vertex="1">
          <mxGeometry x="120" y="120" width="250" height="210" as="geometry" />
        </mxCell>
        <mxCell id="C-vyLk0tnHw3VtMMgP7b-24" value="" style="shape=partialRectangle;collapsible=0;dropTarget=0;pointerEvents=0;fillColor=none;points=[[0,0.5],[1,0.5]];portConstraint=eastwest;top=0;left=0;right=0;bottom=1;" parent="C-vyLk0tnHw3VtMMgP7b-23" vertex="1">
          <mxGeometry y="30" width="250" height="30" as="geometry" />
        </mxCell>
        <mxCell id="C-vyLk0tnHw3VtMMgP7b-25" value="PK" style="shape=partialRectangle;overflow=hidden;connectable=0;fillColor=none;top=0;left=0;bottom=0;right=0;fontStyle=1;" parent="C-vyLk0tnHw3VtMMgP7b-24" vertex="1">
          <mxGeometry width="30" height="30" as="geometry" />
        </mxCell>
        <mxCell id="C-vyLk0tnHw3VtMMgP7b-26" value="app_id varchar(64) NOT NULL " style="shape=partialRectangle;overflow=hidden;connectable=0;fillColor=none;top=0;left=0;bottom=0;right=0;align=left;spacingLeft=6;fontStyle=5;" parent="C-vyLk0tnHw3VtMMgP7b-24" vertex="1">
          <mxGeometry x="30" width="220" height="30" as="geometry" />
        </mxCell>
        <mxCell id="tmyjIiT9FGWEeM-EBc8v-1" value="" style="shape=partialRectangle;collapsible=0;dropTarget=0;pointerEvents=0;fillColor=none;points=[[0,0.5],[1,0.5]];portConstraint=eastwest;top=0;left=0;right=0;bottom=0;" vertex="1" parent="1">
          <mxGeometry x="120" y="180" width="250" height="30" as="geometry" />
        </mxCell>
        <mxCell id="tmyjIiT9FGWEeM-EBc8v-2" value="" style="shape=partialRectangle;overflow=hidden;connectable=0;fillColor=none;top=0;left=0;bottom=0;right=0;" vertex="1" parent="tmyjIiT9FGWEeM-EBc8v-1">
          <mxGeometry width="30" height="30" as="geometry" />
        </mxCell>
        <mxCell id="tmyjIiT9FGWEeM-EBc8v-3" value="app_name varchar(64) NOT NULL" style="shape=partialRectangle;overflow=hidden;connectable=0;fillColor=none;top=0;left=0;bottom=0;right=0;align=left;spacingLeft=6;" vertex="1" parent="tmyjIiT9FGWEeM-EBc8v-1">
          <mxGeometry x="30" width="220" height="30" as="geometry" />
        </mxCell>
        <mxCell id="tmyjIiT9FGWEeM-EBc8v-4" value="" style="shape=partialRectangle;collapsible=0;dropTarget=0;pointerEvents=0;fillColor=none;points=[[0,0.5],[1,0.5]];portConstraint=eastwest;top=0;left=0;right=0;bottom=0;" vertex="1" parent="1">
          <mxGeometry x="120" y="209" width="250" height="30" as="geometry" />
        </mxCell>
        <mxCell id="tmyjIiT9FGWEeM-EBc8v-5" value="" style="shape=partialRectangle;overflow=hidden;connectable=0;fillColor=none;top=0;left=0;bottom=0;right=0;" vertex="1" parent="tmyjIiT9FGWEeM-EBc8v-4">
          <mxGeometry width="30" height="30" as="geometry" />
        </mxCell>
        <mxCell id="tmyjIiT9FGWEeM-EBc8v-6" value="create_by varchar(64) NOT NULL" style="shape=partialRectangle;overflow=hidden;connectable=0;fillColor=none;top=0;left=0;bottom=0;right=0;align=left;spacingLeft=6;" vertex="1" parent="tmyjIiT9FGWEeM-EBc8v-4">
          <mxGeometry x="30" width="220" height="30" as="geometry" />
        </mxCell>
        <mxCell id="tmyjIiT9FGWEeM-EBc8v-7" value="" style="shape=partialRectangle;collapsible=0;dropTarget=0;pointerEvents=0;fillColor=none;points=[[0,0.5],[1,0.5]];portConstraint=eastwest;top=0;left=0;right=0;bottom=0;" vertex="1" parent="1">
          <mxGeometry x="120" y="239" width="250" height="30" as="geometry" />
        </mxCell>
        <mxCell id="tmyjIiT9FGWEeM-EBc8v-8" value="" style="shape=partialRectangle;overflow=hidden;connectable=0;fillColor=none;top=0;left=0;bottom=0;right=0;" vertex="1" parent="tmyjIiT9FGWEeM-EBc8v-7">
          <mxGeometry width="30" height="30" as="geometry" />
        </mxCell>
        <mxCell id="tmyjIiT9FGWEeM-EBc8v-9" value="create_time date NOT NULL" style="shape=partialRectangle;overflow=hidden;connectable=0;fillColor=none;top=0;left=0;bottom=0;right=0;align=left;spacingLeft=6;" vertex="1" parent="tmyjIiT9FGWEeM-EBc8v-7">
          <mxGeometry x="30" width="220" height="30" as="geometry" />
        </mxCell>
        <mxCell id="tmyjIiT9FGWEeM-EBc8v-10" value="" style="shape=partialRectangle;collapsible=0;dropTarget=0;pointerEvents=0;fillColor=none;points=[[0,0.5],[1,0.5]];portConstraint=eastwest;top=0;left=0;right=0;bottom=0;" vertex="1" parent="1">
          <mxGeometry x="120" y="269" width="250" height="30" as="geometry" />
        </mxCell>
        <mxCell id="tmyjIiT9FGWEeM-EBc8v-11" value="" style="shape=partialRectangle;overflow=hidden;connectable=0;fillColor=none;top=0;left=0;bottom=0;right=0;" vertex="1" parent="tmyjIiT9FGWEeM-EBc8v-10">
          <mxGeometry width="30" height="30" as="geometry" />
        </mxCell>
        <mxCell id="tmyjIiT9FGWEeM-EBc8v-12" value="update_by varchar(64) NULL" style="shape=partialRectangle;overflow=hidden;connectable=0;fillColor=none;top=0;left=0;bottom=0;right=0;align=left;spacingLeft=6;" vertex="1" parent="tmyjIiT9FGWEeM-EBc8v-10">
          <mxGeometry x="30" width="220" height="30" as="geometry" />
        </mxCell>
        <mxCell id="tmyjIiT9FGWEeM-EBc8v-13" value="" style="shape=partialRectangle;collapsible=0;dropTarget=0;pointerEvents=0;fillColor=none;points=[[0,0.5],[1,0.5]];portConstraint=eastwest;top=0;left=0;right=0;bottom=0;" vertex="1" parent="1">
          <mxGeometry x="120" y="299" width="250" height="30" as="geometry" />
        </mxCell>
        <mxCell id="tmyjIiT9FGWEeM-EBc8v-14" value="" style="shape=partialRectangle;overflow=hidden;connectable=0;fillColor=none;top=0;left=0;bottom=0;right=0;" vertex="1" parent="tmyjIiT9FGWEeM-EBc8v-13">
          <mxGeometry width="30" height="30" as="geometry" />
        </mxCell>
        <mxCell id="tmyjIiT9FGWEeM-EBc8v-15" value="update_time date NULL" style="shape=partialRectangle;overflow=hidden;connectable=0;fillColor=none;top=0;left=0;bottom=0;right=0;align=left;spacingLeft=6;" vertex="1" parent="tmyjIiT9FGWEeM-EBc8v-13">
          <mxGeometry x="30" width="220" height="30" as="geometry" />
        </mxCell>
        <mxCell id="tmyjIiT9FGWEeM-EBc8v-16" value="namespace" style="shape=table;startSize=30;container=1;collapsible=1;childLayout=tableLayout;fixedRows=1;rowLines=0;fontStyle=1;align=center;resizeLast=1;" vertex="1" parent="1">
          <mxGeometry x="550" y="120" width="270" height="210" as="geometry" />
        </mxCell>
        <mxCell id="tmyjIiT9FGWEeM-EBc8v-17" value="" style="shape=partialRectangle;collapsible=0;dropTarget=0;pointerEvents=0;fillColor=none;points=[[0,0.5],[1,0.5]];portConstraint=eastwest;top=0;left=0;right=0;bottom=1;" vertex="1" parent="tmyjIiT9FGWEeM-EBc8v-16">
          <mxGeometry y="30" width="270" height="30" as="geometry" />
        </mxCell>
        <mxCell id="tmyjIiT9FGWEeM-EBc8v-18" value="PK" style="shape=partialRectangle;overflow=hidden;connectable=0;fillColor=none;top=0;left=0;bottom=0;right=0;fontStyle=1;" vertex="1" parent="tmyjIiT9FGWEeM-EBc8v-17">
          <mxGeometry width="30" height="30" as="geometry" />
        </mxCell>
        <mxCell id="tmyjIiT9FGWEeM-EBc8v-19" value="namespace_id varchar(64) NOT NULL " style="shape=partialRectangle;overflow=hidden;connectable=0;fillColor=none;top=0;left=0;bottom=0;right=0;align=left;spacingLeft=6;fontStyle=5;" vertex="1" parent="tmyjIiT9FGWEeM-EBc8v-17">
          <mxGeometry x="30" width="240" height="30" as="geometry" />
        </mxCell>
        <mxCell id="tmyjIiT9FGWEeM-EBc8v-20" value="" style="shape=partialRectangle;collapsible=0;dropTarget=0;pointerEvents=0;fillColor=none;points=[[0,0.5],[1,0.5]];portConstraint=eastwest;top=0;left=0;right=0;bottom=0;" vertex="1" parent="1">
          <mxGeometry x="550" y="180" width="250" height="30" as="geometry" />
        </mxCell>
        <mxCell id="tmyjIiT9FGWEeM-EBc8v-21" value="" style="shape=partialRectangle;overflow=hidden;connectable=0;fillColor=none;top=0;left=0;bottom=0;right=0;" vertex="1" parent="tmyjIiT9FGWEeM-EBc8v-20">
          <mxGeometry width="30" height="30" as="geometry" />
        </mxCell>
        <mxCell id="tmyjIiT9FGWEeM-EBc8v-22" value="namespace_name varchar(64) not null" style="shape=partialRectangle;overflow=hidden;connectable=0;fillColor=none;top=0;left=0;bottom=0;right=0;align=left;spacingLeft=6;" vertex="1" parent="tmyjIiT9FGWEeM-EBc8v-20">
          <mxGeometry x="30" width="220" height="30" as="geometry" />
        </mxCell>
        <mxCell id="tmyjIiT9FGWEeM-EBc8v-23" value="" style="shape=partialRectangle;collapsible=0;dropTarget=0;pointerEvents=0;fillColor=none;points=[[0,0.5],[1,0.5]];portConstraint=eastwest;top=0;left=0;right=0;bottom=0;" vertex="1" parent="1">
          <mxGeometry x="550" y="209" width="250" height="30" as="geometry" />
        </mxCell>
        <mxCell id="tmyjIiT9FGWEeM-EBc8v-24" value="" style="shape=partialRectangle;overflow=hidden;connectable=0;fillColor=none;top=0;left=0;bottom=0;right=0;" vertex="1" parent="tmyjIiT9FGWEeM-EBc8v-23">
          <mxGeometry width="30" height="30" as="geometry" />
        </mxCell>
        <mxCell id="tmyjIiT9FGWEeM-EBc8v-25" value="create_by varchar(64) NOT NULL" style="shape=partialRectangle;overflow=hidden;connectable=0;fillColor=none;top=0;left=0;bottom=0;right=0;align=left;spacingLeft=6;" vertex="1" parent="tmyjIiT9FGWEeM-EBc8v-23">
          <mxGeometry x="30" width="220" height="30" as="geometry" />
        </mxCell>
        <mxCell id="tmyjIiT9FGWEeM-EBc8v-26" value="" style="shape=partialRectangle;collapsible=0;dropTarget=0;pointerEvents=0;fillColor=none;points=[[0,0.5],[1,0.5]];portConstraint=eastwest;top=0;left=0;right=0;bottom=0;" vertex="1" parent="1">
          <mxGeometry x="550" y="239" width="250" height="30" as="geometry" />
        </mxCell>
        <mxCell id="tmyjIiT9FGWEeM-EBc8v-27" value="" style="shape=partialRectangle;overflow=hidden;connectable=0;fillColor=none;top=0;left=0;bottom=0;right=0;" vertex="1" parent="tmyjIiT9FGWEeM-EBc8v-26">
          <mxGeometry width="30" height="30" as="geometry" />
        </mxCell>
        <mxCell id="tmyjIiT9FGWEeM-EBc8v-28" value="create_time date NOT NULL" style="shape=partialRectangle;overflow=hidden;connectable=0;fillColor=none;top=0;left=0;bottom=0;right=0;align=left;spacingLeft=6;" vertex="1" parent="tmyjIiT9FGWEeM-EBc8v-26">
          <mxGeometry x="30" width="220" height="30" as="geometry" />
        </mxCell>
        <mxCell id="tmyjIiT9FGWEeM-EBc8v-29" value="" style="shape=partialRectangle;collapsible=0;dropTarget=0;pointerEvents=0;fillColor=none;points=[[0,0.5],[1,0.5]];portConstraint=eastwest;top=0;left=0;right=0;bottom=0;" vertex="1" parent="1">
          <mxGeometry x="550" y="269" width="250" height="30" as="geometry" />
        </mxCell>
        <mxCell id="tmyjIiT9FGWEeM-EBc8v-30" value="" style="shape=partialRectangle;overflow=hidden;connectable=0;fillColor=none;top=0;left=0;bottom=0;right=0;" vertex="1" parent="tmyjIiT9FGWEeM-EBc8v-29">
          <mxGeometry width="30" height="30" as="geometry" />
        </mxCell>
        <mxCell id="tmyjIiT9FGWEeM-EBc8v-31" value="update_by varchar(64) NULL" style="shape=partialRectangle;overflow=hidden;connectable=0;fillColor=none;top=0;left=0;bottom=0;right=0;align=left;spacingLeft=6;" vertex="1" parent="tmyjIiT9FGWEeM-EBc8v-29">
          <mxGeometry x="30" width="220" height="30" as="geometry" />
        </mxCell>
        <mxCell id="tmyjIiT9FGWEeM-EBc8v-32" value="" style="shape=partialRectangle;collapsible=0;dropTarget=0;pointerEvents=0;fillColor=none;points=[[0,0.5],[1,0.5]];portConstraint=eastwest;top=0;left=0;right=0;bottom=0;" vertex="1" parent="1">
          <mxGeometry x="550" y="299" width="250" height="30" as="geometry" />
        </mxCell>
        <mxCell id="tmyjIiT9FGWEeM-EBc8v-33" value="" style="shape=partialRectangle;overflow=hidden;connectable=0;fillColor=none;top=0;left=0;bottom=0;right=0;" vertex="1" parent="tmyjIiT9FGWEeM-EBc8v-32">
          <mxGeometry width="30" height="30" as="geometry" />
        </mxCell>
        <mxCell id="tmyjIiT9FGWEeM-EBc8v-34" value="update_time date NULL" style="shape=partialRectangle;overflow=hidden;connectable=0;fillColor=none;top=0;left=0;bottom=0;right=0;align=left;spacingLeft=6;" vertex="1" parent="tmyjIiT9FGWEeM-EBc8v-32">
          <mxGeometry x="30" width="220" height="30" as="geometry" />
        </mxCell>
        <mxCell id="tmyjIiT9FGWEeM-EBc8v-35" value="config" style="shape=table;startSize=30;container=1;collapsible=1;childLayout=tableLayout;fixedRows=1;rowLines=0;fontStyle=1;align=center;resizeLast=1;" vertex="1" parent="1">
          <mxGeometry x="120" y="410" width="270" height="210" as="geometry" />
        </mxCell>
        <mxCell id="tmyjIiT9FGWEeM-EBc8v-36" value="" style="shape=partialRectangle;collapsible=0;dropTarget=0;pointerEvents=0;fillColor=none;points=[[0,0.5],[1,0.5]];portConstraint=eastwest;top=0;left=0;right=0;bottom=1;" vertex="1" parent="tmyjIiT9FGWEeM-EBc8v-35">
          <mxGeometry y="30" width="270" height="30" as="geometry" />
        </mxCell>
        <mxCell id="tmyjIiT9FGWEeM-EBc8v-37" value="PK" style="shape=partialRectangle;overflow=hidden;connectable=0;fillColor=none;top=0;left=0;bottom=0;right=0;fontStyle=1;" vertex="1" parent="tmyjIiT9FGWEeM-EBc8v-36">
          <mxGeometry width="30" height="30" as="geometry" />
        </mxCell>
        <mxCell id="tmyjIiT9FGWEeM-EBc8v-38" value="namespace_id varchar(64) NOT NULL " style="shape=partialRectangle;overflow=hidden;connectable=0;fillColor=none;top=0;left=0;bottom=0;right=0;align=left;spacingLeft=6;fontStyle=5;" vertex="1" parent="tmyjIiT9FGWEeM-EBc8v-36">
          <mxGeometry x="30" width="240" height="30" as="geometry" />
        </mxCell>
        <mxCell id="tmyjIiT9FGWEeM-EBc8v-39" value="app_instance" style="shape=table;startSize=30;container=1;collapsible=1;childLayout=tableLayout;fixedRows=1;rowLines=0;fontStyle=1;align=center;resizeLast=1;" vertex="1" parent="1">
          <mxGeometry x="550" y="400" width="270" height="190" as="geometry" />
        </mxCell>
        <mxCell id="tmyjIiT9FGWEeM-EBc8v-40" value="" style="shape=partialRectangle;collapsible=0;dropTarget=0;pointerEvents=0;fillColor=none;points=[[0,0.5],[1,0.5]];portConstraint=eastwest;top=0;left=0;right=0;bottom=1;" vertex="1" parent="tmyjIiT9FGWEeM-EBc8v-39">
          <mxGeometry y="30" width="270" height="30" as="geometry" />
        </mxCell>
        <mxCell id="tmyjIiT9FGWEeM-EBc8v-41" value="PK" style="shape=partialRectangle;overflow=hidden;connectable=0;fillColor=none;top=0;left=0;bottom=0;right=0;fontStyle=1;" vertex="1" parent="tmyjIiT9FGWEeM-EBc8v-40">
          <mxGeometry width="30" height="30" as="geometry" />
        </mxCell>
        <mxCell id="tmyjIiT9FGWEeM-EBc8v-42" value="instance_id varchar(64) NOT NULL " style="shape=partialRectangle;overflow=hidden;connectable=0;fillColor=none;top=0;left=0;bottom=0;right=0;align=left;spacingLeft=6;fontStyle=5;" vertex="1" parent="tmyjIiT9FGWEeM-EBc8v-40">
          <mxGeometry x="30" width="240" height="30" as="geometry" />
        </mxCell>
        <mxCell id="tmyjIiT9FGWEeM-EBc8v-43" value="" style="shape=partialRectangle;collapsible=0;dropTarget=0;pointerEvents=0;fillColor=none;points=[[0,0.5],[1,0.5]];portConstraint=eastwest;top=0;left=0;right=0;bottom=0;" vertex="1" parent="1">
          <mxGeometry x="550" y="460" width="270" height="30" as="geometry" />
        </mxCell>
        <mxCell id="tmyjIiT9FGWEeM-EBc8v-44" value="" style="shape=partialRectangle;overflow=hidden;connectable=0;fillColor=none;top=0;left=0;bottom=0;right=0;" vertex="1" parent="tmyjIiT9FGWEeM-EBc8v-43">
          <mxGeometry width="32.400000000000006" height="30" as="geometry" />
        </mxCell>
        <mxCell id="tmyjIiT9FGWEeM-EBc8v-45" value="app_id varchar(64) NOT NULL" style="shape=partialRectangle;overflow=hidden;connectable=0;fillColor=none;top=0;left=0;bottom=0;right=0;align=left;spacingLeft=6;" vertex="1" parent="tmyjIiT9FGWEeM-EBc8v-43">
          <mxGeometry x="32.400000000000006" width="237.60000000000002" height="30" as="geometry" />
        </mxCell>
        <mxCell id="tmyjIiT9FGWEeM-EBc8v-46" value="" style="shape=partialRectangle;collapsible=0;dropTarget=0;pointerEvents=0;fillColor=none;points=[[0,0.5],[1,0.5]];portConstraint=eastwest;top=0;left=0;right=0;bottom=0;" vertex="1" parent="1">
          <mxGeometry x="550" y="490" width="270" height="30" as="geometry" />
        </mxCell>
        <mxCell id="tmyjIiT9FGWEeM-EBc8v-47" value="" style="shape=partialRectangle;overflow=hidden;connectable=0;fillColor=none;top=0;left=0;bottom=0;right=0;" vertex="1" parent="tmyjIiT9FGWEeM-EBc8v-46">
          <mxGeometry width="32.400000000000006" height="30" as="geometry" />
        </mxCell>
        <mxCell id="tmyjIiT9FGWEeM-EBc8v-48" value="namespace_id varchar(64) NOT NULL" style="shape=partialRectangle;overflow=hidden;connectable=0;fillColor=none;top=0;left=0;bottom=0;right=0;align=left;spacingLeft=6;" vertex="1" parent="tmyjIiT9FGWEeM-EBc8v-46">
          <mxGeometry x="31.400000000000006" width="237.60000000000002" height="30" as="geometry" />
        </mxCell>
        <mxCell id="tmyjIiT9FGWEeM-EBc8v-49" value="" style="shape=partialRectangle;collapsible=0;dropTarget=0;pointerEvents=0;fillColor=none;points=[[0,0.5],[1,0.5]];portConstraint=eastwest;top=0;left=0;right=0;bottom=0;" vertex="1" parent="1">
          <mxGeometry x="550" y="520" width="270" height="30" as="geometry" />
        </mxCell>
        <mxCell id="tmyjIiT9FGWEeM-EBc8v-50" value="" style="shape=partialRectangle;overflow=hidden;connectable=0;fillColor=none;top=0;left=0;bottom=0;right=0;" vertex="1" parent="tmyjIiT9FGWEeM-EBc8v-49">
          <mxGeometry width="32.400000000000006" height="30" as="geometry" />
        </mxCell>
        <mxCell id="tmyjIiT9FGWEeM-EBc8v-51" value="group_name varchar(64) NOT NULL" style="shape=partialRectangle;overflow=hidden;connectable=0;fillColor=none;top=0;left=0;bottom=0;right=0;align=left;spacingLeft=6;" vertex="1" parent="tmyjIiT9FGWEeM-EBc8v-49">
          <mxGeometry x="31.400000000000006" width="237.60000000000002" height="30" as="geometry" />
        </mxCell>
        <mxCell id="tmyjIiT9FGWEeM-EBc8v-52" value="" style="shape=partialRectangle;collapsible=0;dropTarget=0;pointerEvents=0;fillColor=none;points=[[0,0.5],[1,0.5]];portConstraint=eastwest;top=0;left=0;right=0;bottom=0;" vertex="1" parent="1">
          <mxGeometry x="550" y="550" width="270" height="30" as="geometry" />
        </mxCell>
        <mxCell id="tmyjIiT9FGWEeM-EBc8v-53" value="" style="shape=partialRectangle;overflow=hidden;connectable=0;fillColor=none;top=0;left=0;bottom=0;right=0;" vertex="1" parent="tmyjIiT9FGWEeM-EBc8v-52">
          <mxGeometry width="32.400000000000006" height="30" as="geometry" />
        </mxCell>
        <mxCell id="tmyjIiT9FGWEeM-EBc8v-54" value="ip_name varchar(64) NOT NULL" style="shape=partialRectangle;overflow=hidden;connectable=0;fillColor=none;top=0;left=0;bottom=0;right=0;align=left;spacingLeft=6;" vertex="1" parent="tmyjIiT9FGWEeM-EBc8v-52">
          <mxGeometry x="31.400000000000006" width="237.60000000000002" height="30" as="geometry" />
        </mxCell>
        <mxCell id="tmyjIiT9FGWEeM-EBc8v-55" value="" style="shape=partialRectangle;collapsible=0;dropTarget=0;pointerEvents=0;fillColor=none;points=[[0,0.5],[1,0.5]];portConstraint=eastwest;top=0;left=0;right=0;bottom=0;" vertex="1" parent="1">
          <mxGeometry x="560" y="590" width="270" height="30" as="geometry" />
        </mxCell>
        <mxCell id="tmyjIiT9FGWEeM-EBc8v-56" value="" style="shape=partialRectangle;overflow=hidden;connectable=0;fillColor=none;top=0;left=0;bottom=0;right=0;" vertex="1" parent="tmyjIiT9FGWEeM-EBc8v-55">
          <mxGeometry width="32.400000000000006" height="30" as="geometry" />
        </mxCell>
      </root>
    </mxGraphModel>
  </diagram>
</mxfile>
